<?xml version="1.0" encoding="utf-8"?>
<!-- Generator: Adobe Illustrator 25.4.1, SVG Export Plug-In . SVG Version: 6.00 Build 0)  -->
<svg version="1.1" id="Capa_1" xmlns="http://www.w3.org/2000/svg" xmlns:xlink="http://www.w3.org/1999/xlink" x="0px" y="0px"
	 viewBox="0 0 250 250" style="enable-background:new 0 0 250 250;" xml:space="preserve">
<style type="text/css">
	.st0{fill:#EC6F09;}
	.st1{fill:#FAF9F9;}
</style>
<g>
	<path class="st0" d="M122.1,223.5c-22.5-0.8-44.2-1.2-65.8-2.3c-15.6-0.8-26.9-8.6-32.7-23.4c-1.2-3.1-2.9-5.4-5.5-7.4
		C1.4,177.2,2,148.7,19.3,136.5c2.8-2,2.8-4.6,3.5-7.1c4.6-16.6,13.8-29.2,31.5-32.7c6.3-1.2,10.7-3.8,15.2-8
		c10.5-9.9,23.7-14.3,38-14.3c25.7,0.1,50.7,4.5,74.3,15c8.5,3.8,16.4,8.4,23.5,14.4c9.3,7.9,14,17.9,13.5,30.2
		c-0.1,2.7,0.5,4.4,2.4,6.3c11,10.8,16.4,23.4,13.1,39.1c-0.9,4.3,0,8.9-0.8,13.2c-3.4,19.1-15.5,28.6-36.4,30
		C171.9,224.3,146.6,223.5,122.1,223.5z M213.8,147.4c-2.7,3.5-5.1,7.1-8.9,9.1c-3.2,1.7-3.8,3.8-3.2,7.2
		c2.7,14.5-1.9,26.9-11.4,37.7c-2.5,2.8-5.4,4.8-8.7,1.9c-3.5-3.1-1.5-6,1-8.8c6.7-7.3,9.9-15.8,9.5-25.8c-0.2-4.7-1-7.7-6.7-6.9
		c-2.1,0.3-4.4-0.4-6.5-0.9c-3-0.7-4.4-2.7-4-5.8c0.4-2.8,2.3-4.1,5.1-4.1c1.2,0,2.4,0.2,3.6,0.3c11.3,0.7,18.2-2.9,22.3-11.7
		c4.3-9.1,2.7-18-4.8-25.9c-4.6-4.9-10.2-8.4-16.1-11.5c-24-12.7-49.9-17.5-76.6-17.7C92.6,84.6,78.8,90,69.8,104
		c-1.2,1.9-3,1.6-4.8,1.7c-16.7,0.7-26.5,8.2-31.4,23.9c-2.9,9.3-1.4,13.2,6.9,18.7c16,10.6,37.5,6.7,50.1-9.1c2.2-2.8,4.6-5,8-2.6
		c3.8,2.6,2.5,5.8,0.1,8.8C87.4,159.4,72.9,166,54.9,164c-12.9-1.5-23.6-7.2-31.1-18.2c-11.3,12.4-10,30.7,2.8,37.9
		c3.4,1.9,4.8,4.1,5.7,7.6c2.5,10.4,9.4,16.5,19.6,19c1.2,0.3,4.3,1.8,3.8-1.5c-0.8-6.4-0.9-12.8-0.1-19.2c0.3-2.1-1.5-3.2-2.8-4.3
		c-3.7-3.3-8.1-5.2-12.9-6.2c-3.6-0.7-6.1-2.6-5.1-6.6c1-4,4.2-4.4,7.7-3.3c3,1,6.7,1.3,9,3.2c6.3,5.5,10.9,4.7,15.1-2.4
		c0.9-1.6,2.6-3,4.9-3.2c2.2-0.2,4,0.5,5.1,2.5c1.8,3.1,0.1,5.3-2.1,7.4c-9,8.7-10.9,19.2-8.2,31c0.5,2.3,1.1,4,4.1,4.1
		c10.4,0.2,20.9,0.6,31.3,1.1c2.5,0.1,3.5-0.5,3.6-3.2c0.2-10.4,2.5-20.1,10.7-27.8c-5.4-3.6-9.7-7.4-12.8-12.5
		c-1.9-3.1-2.5-6.1,1.1-8.3c3.4-2.1,5.7-0.2,7.5,2.6c5.5,8.5,13.1,12.7,23.3,12c3.8-0.3,7.9,0.1,8,5c0.1,4.9-4.1,5.7-7.7,5.5
		c-15.8-0.8-20.2,13.1-19.8,24.5c0.1,1.7,0.5,2.6,2.4,2.6c6.6,0,13.3,0.2,19.9,0.3c1.7,0,2.5-1,3.4-2.1c6.1-8.3,11.5-16.9,13.7-27.2
		c2.3-10.4-0.7-19-8.6-26c-3.2-2.8-6.7-5.1-10.7-6.6c-3.5-1.4-5.5-3.8-3.9-7.5c1.7-3.8,5-3.3,8.2-1.8c2.2,1,4.3,2.1,6.4,3.3
		c8.9,5.4,9.6,5.3,17.2-2.1c1.4-1.4,2.7-3,4-4.5c3.2-3.6,5.1-7.1-0.2-10.7c-1.4-1-2.3-2.7-3.3-4.2c-1.9-2.7-2-5.3,0.7-7.5
		c2.7-2.1,5.4-1.4,7.3,1.3c4.6,6.6,10.5,10.9,18.5,12.3c2.7,0.5,3.9,2.7,3.5,5.5c-0.4,2.8-2.2,4.2-5,4.2c-1.6,0-3.4,0-4.7-0.7
		c-3.1-1.6-4.6-0.2-6.1,2.4c-3.6,6.1-8.6,11.1-14.5,15c-2.3,1.5-3.4,2.5-1.8,5.6c5.1,9.6,4.5,19.7,1.4,29.8
		c-2.3,7.5-6.4,14.1-10.8,21.7c18.7-0.5,36.5,0.9,54.1-2.9c9.8-2.1,14.5-9.3,16.6-18.6c0.7-3.1,0.5-4.9-3.5-4.4
		c-4.8,0.7-9.2-0.8-12.9-3.9c-2.3-2-2.7-4.5-1-7c1.5-2.1,3.8-2.9,6.3-1.5c0.9,0.5,1.7,1.1,2.6,1.5c6.5,2.7,10.7-0.1,10.3-7.1
		C224.5,160.7,220.5,153.6,213.8,147.4z"/>
	<path class="st1" d="M84.5,124.9c5.1-0.1,7.1-2.5,5.8-7.3c-1.8-6.6-0.6-11.8,5.2-15.8c2.7-1.9,3.3-4.6,1.3-7.3
		c-2-2.7-4.7-2.7-7.4-0.9c-5.8,3.9-9.5,9.1-9.9,16.3c-0.1,2.9-0.9,3.9-4,4.5c-7.8,1.4-13.5,5.9-16.3,13.4c-1,2.6-0.6,5.3,2.3,6.6
		c2.4,1.1,5.1,0.8,6.3-1.7C71.4,125,77.3,123,84.5,124.9z M108.9,112.7c-2.4-0.1-6.8-0.3-7,5.1c-0.1,4.9,3.9,5,7.8,5.1
		c5.5,0.1,10.7,1.8,14.9,5.5c3.9,3.5,6.9,2.8,10.1-1.1c3.6-4.5,7.5-9,13.6-10.3c3.4-0.7,5.6-2.5,4.8-6.2c-0.9-4.2-4.2-4.5-7.6-3.8
		c-5.2,1.2-9.7,3.9-13.3,7.8c-2.5,2.8-4.6,3.5-8.1,1.5C120.1,113.7,115.4,112.7,108.9,112.7z"/>
	<path class="st0" d="M84.5,124.9c-7.2-1.9-13.1,0.2-16.7,7.9c-1.2,2.5-3.9,2.8-6.3,1.7c-3-1.3-3.3-4-2.3-6.6
		c2.9-7.5,8.6-12.1,16.3-13.4c3.1-0.5,3.8-1.6,4-4.5c0.3-7.1,4-12.4,9.9-16.3c2.7-1.8,5.4-1.9,7.4,0.9c2,2.7,1.4,5.4-1.3,7.3
		c-5.8,4-6.9,9.2-5.2,15.8C91.6,122.4,89.6,124.7,84.5,124.9z"/>
	<path class="st0" d="M108.9,112.7c6.4,0.1,11.2,1.1,15.4,3.5c3.4,2,5.5,1.4,8.1-1.5c3.5-3.9,8.1-6.6,13.3-7.8
		c3.4-0.7,6.7-0.4,7.6,3.8c0.8,3.7-1.4,5.5-4.8,6.2c-6.1,1.3-10,5.8-13.6,10.3c-3.2,3.9-6.1,4.6-10.1,1.1c-4.2-3.7-9.4-5.4-14.9-5.5
		c-3.9-0.1-7.9-0.2-7.8-5.1C102.1,112.4,106.5,112.6,108.9,112.7z"/>
</g>
</svg>
