<?xml version="1.0" encoding="utf-8"?>
<!-- Generator: Adobe Illustrator 25.4.1, SVG Export Plug-In . SVG Version: 6.00 Build 0)  -->
<svg version="1.1" id="Capa_1" xmlns="http://www.w3.org/2000/svg" xmlns:xlink="http://www.w3.org/1999/xlink" x="0px" y="0px"
	 viewBox="0 0 250 250" style="enable-background:new 0 0 250 250;" xml:space="preserve">
<style type="text/css">
	.st0{fill:#FFFFFF;}
	.st1{fill:#EC6F09;}
	.st2{fill:#FFFDFF;}
</style>
<path class="st0" d="M113.7,42.2c28.3,0,56.6,0,84.9,0c10.4,0,14.2,3.8,14.3,14c0,0.3,0,0.7,0,1c0,7,0,7,7.1,7
	c12.3,0,15.7,3.4,15.7,15.7c0,48.3,0,96.6,0,144.8c0,11.7-3.5,15.1-15.2,15.1c-56.4,0-112.9,0-169.3,0c-10.2,0-14-3.9-14-14.2
	c0-7.8,0-7.8-7.8-7.9c-11.4,0-15-3.6-15-14.8c0-48.8,0-97.6,0-146.3c0-10.6,3.8-14.4,14.5-14.4C57.1,42.2,85.4,42.2,113.7,42.2z
	 M114,69.7c-29.6,0-59.3,0.1-88.9-0.1c-4,0-5.4,0.8-5.3,5.1c0.2,43,0.1,85.9,0.1,128.9c0,7.6,1,8.6,8.7,8.6c56.8,0,113.6,0,170.4,0
	c7.4,0,8.5-1.2,8.5-8.8c0-42.6,0-85.3,0.1-127.9c0-4.4-0.9-5.9-5.7-5.8C172.6,69.8,143.3,69.7,114,69.7z M136.5,234.4
	c28.3,0,56.6,0,84.9,0c7.7,0,8.8-1,8.8-8.6c0-48,0-95.9,0-143.9c0-12.3,0-12.1-12.5-12.4c-4.1-0.1-4.8,1.3-4.8,5
	c0.1,43.1,0.1,86.2,0.1,129.4c0,9.6-4,13.6-13.7,13.7c-16.8,0-33.6,0-50.4,0c-33.8,0-67.6,0-101.4,0c-1.6,0-4.2-0.8-4.5,0.9
	c-0.8,4.2-1.2,8.7,0.4,12.8c1.4,3.4,4.8,3,7.8,3C79.5,234.4,108,234.4,136.5,234.4z M82.1,64.2c17.2,0,34.3,0,51.5,0
	c11.2,0,10.9,0,11.3-11.1c0.2-4.9-1.7-5.6-6-5.6c-35.6,0.1-71.3,0.1-106.9,0.1c-12.2,0-12.1,0.1-12.2,12.2c-0.1,4.1,1.5,4.5,4.9,4.5
	C43.8,64.2,62.9,64.2,82.1,64.2z M178.6,64.2c7,0,14,0,21,0c8.1,0,8.1,0,8-8.3c-0.1-6.8-1.5-8.3-8.2-8.3c-12.3,0-24.6,0-37,0
	c-13,0-12.9,0-12.6,13.2c0.1,3,1.1,3.6,3.8,3.5C161.9,64.2,170.3,64.2,178.6,64.2z"/>
<path class="st1" d="M114,180.9c-25.1,0-50.3,0-75.4-0.1c-1.5,0-3.9,1.1-4.2-1.9c-0.5-4,2.3-3.2,4.5-3.2c25.6,0,51.3,0,76.9,0
	c24.3,0,48.6,0,72.9,0.1c1.5,0,3.8-1.2,4.2,1.9c0.5,4-2.3,3.2-4.5,3.2C163.6,181,138.8,180.9,114,180.9z"/>
<path class="st1" d="M98.5,191.9c19.6,0,39.3,0,58.9,0c1.8,0,4.6-1.3,4.5,2.6c-0.1,3.9-3,2.4-4.7,2.4c-39.4,0.1-78.9,0.1-118.3,0
	c-1.8,0-4.6,1.3-4.6-2.6c0.1-3.9,2.9-2.4,4.7-2.4C58.8,191.8,78.6,191.9,98.5,191.9z"/>
<path class="st1" d="M139.8,138.9c-1.4,0-2.3-0.6-2.7-1.6c-0.7-1.7,0.3-2.8,1.4-3.9c5-4.9,9.6-10.2,14.9-14.7c4-3.4,4-5.7,0-9.1
	c-5-4.4-9.5-9.3-14.2-14c-1.5-1.5-3.7-3.1-1.5-5.4c2-2.1,3.6,0,5,1.4c6.8,6.8,13.6,13.7,20.5,20.4c1.3,1.3,2.2,2.2,0.4,4
	c-7.3,7.1-14.4,14.3-21.6,21.5C141.3,138.1,140.4,138.5,139.8,138.9z"/>
<path class="st1" d="M90.3,136c0.1,1.1-0.3,1.9-1.3,2.5c-1.5,0.9-2.6,0-3.5-0.9c-3.2-3.1-6.4-6.3-9.5-9.5
	c-3.9-3.9-7.7-7.8-11.7-11.6c-1.8-1.7-2.1-2.8-0.1-4.7c6.9-6.7,13.7-13.6,20.5-20.4c1.4-1.4,3.1-3.3,5-1.1c1.8,2,0.1,3.6-1.4,5.1
	c-5.3,5.3-10.5,10.7-15.9,15.8c-2.3,2.2-2.6,3.5-0.1,5.8c5.5,5.1,10.6,10.5,15.9,15.8C89.1,133.7,90.2,134.5,90.3,136z"/>
<path class="st1" d="M124.7,95.4c-0.3,0.9-0.7,1.8-1.1,2.7c-5.1,11.4-10.2,22.7-15.3,34.1c-0.8,1.7-1.3,4.4-4,3.4
	c-3-1.1-1.7-3.4-0.8-5.4c5.1-11.5,10.3-23,15.4-34.6c0.7-1.6,1.4-3.6,3.8-2.9C124.1,93,124.7,94,124.7,95.4z"/>
<path class="st2" d="M69.4,164.9c-2.2,0-4.3-0.1-6.5,0c-2.2,0.1-2.9-0.8-2.9-2.9c0-2.1,1-2.5,2.8-2.5c4.2,0,8.3,0.1,12.5,0
	c2.2-0.1,2.8,0.9,2.8,3c0,2-0.9,2.6-2.7,2.5C73.4,164.8,71.4,164.9,69.4,164.9z"/>
<path class="st1" d="M104.7,164.9c-2,0-4-0.1-6,0c-2.3,0.2-2.8-0.9-2.8-2.9s0.9-2.5,2.7-2.5c4.2,0.1,8.3,0.1,12.5,0
	c2.2,0,2.9,0.9,2.8,3c0,2.1-1,2.5-2.8,2.5C109,164.8,106.8,164.9,104.7,164.9z"/>
<path class="st0" d="M38.6,164.9c-2.1-0.1-4.3,0.6-4.3-2.7c0-3.7,2.6-2.6,4.5-2.7c2.1-0.2,3.9-0.1,3.8,2.9
	C42.4,165.9,40,164.6,38.6,164.9z"/>
<path class="st0" d="M135.6,159.5c1.8,0.2,4.1-0.7,4.2,2.6c0.1,3.7-2.4,2.7-4.4,2.8s-4,0.4-3.9-2.8
	C131.5,158.8,133.8,159.6,135.6,159.5z"/>
<path class="st0" d="M161.3,58.7c-2,0.2-3.3-0.2-3.3-2.8c0-2.9,1.8-2.5,3.7-2.6c2.1-0.1,3.4,0.2,3.4,2.9
	C165,59,163.3,58.7,161.3,58.7z"/>
<path class="st0" d="M178.6,58.7c-2.1,0.2-3.5-0.2-3.5-2.8c0-2.8,1.7-2.6,3.6-2.7c2-0.1,3.4,0.2,3.4,2.8
	C182.1,58.8,180.6,58.8,178.6,58.7z"/>
<path class="st0" d="M195.6,53.3c2.4-0.3,3.7,0.2,3.7,2.8c0,2.9-1.9,2.5-3.7,2.6c-1.9,0.1-3.1-0.3-3.1-2.6
	C192.5,53.5,193.7,52.8,195.6,53.3z"/>
</svg>
