<?xml version="1.0" encoding="utf-8"?>
<!-- Generator: Adobe Illustrator 25.4.1, SVG Export Plug-In . SVG Version: 6.00 Build 0)  -->
<svg version="1.1" id="Capa_1" xmlns="http://www.w3.org/2000/svg" xmlns:xlink="http://www.w3.org/1999/xlink" x="0px" y="0px"
	 viewBox="0 0 250 250" style="enable-background:new 0 0 250 250;" xml:space="preserve">
<style type="text/css">
	.st0{fill:#FFFFFF;}
	.st1{fill:#EC6F09;}
</style>
<g>
	<path class="st0" d="M12.8,117.9c10.3-6.5,20.1-12.8,30-18.9c2.9-1.8,4.8-4,6.3-7.3c9.3-21.5,24.7-37.2,45.9-47.1
		c1.6-0.8,3.3-1.5,4.8-3c-13,0-26,0-39,0c-1.9,0-2.4,1.2-3.3,2.5c-3.1,4.7-7.3,6.3-11.9,4.8c-4.6-1.5-7.5-5.4-7.3-10.2
		c0.2-4.8,2.8-8.1,7.4-9.6c4.5-1.5,8.9,0.2,11.8,5c1.1,1.9,2.3,2.4,4.3,2.4c18.7-0.1,37.3-0.1,56,0c2.8,0,4.2-0.7,3.6-3.6
		c-0.8-4.5,1.4-5.3,5.3-5c4.1,0.3,8.3,0.3,12.5,0c3.6-0.3,4.9,1.1,4.3,4.5c-0.6,3.3,0.8,4.2,4.1,4.1c18.3-0.2,36.6-0.1,55,0
		c2.4,0,3.8-0.7,5-2.8c2.6-4.4,7.1-6,11.5-4.6c4.6,1.4,7.6,5.4,7.4,10.1c-0.2,4.8-2.7,8.1-7.3,9.6c-4.5,1.5-8.9-0.1-11.7-4.3
		c-1-1.5-1.5-3-3.9-3c-12.8,0.2-25.6,0.1-38.6,0.1c0.7,1.7,2.2,1.7,3.3,2.2c26.1,12.1,43.6,31.7,51.4,59.5c0.8,2.9,2,4.4,5.3,4.5
		c4.7,0.2,8.8,1.8,10.5,6.9c2,6-1.1,11.6-7.4,12.8c-3.3,0.6-5.7,1.3-5.2,5.4c0.2,1.4,0.4,3.5-2.4,3.3c-2.3-0.2-3.4-1.1-2.9-3.5
		c0.6-3.1-0.8-3.5-3.6-3.3c-10.2,0.9-10.1,0.8-11.4,10.8c-2.2,16.1-8.6,30.4-19.4,42.5c-4.3,4.7-5.7,9.4-4.5,15.4
		c1,0.7,1.7-0.3,2.5-0.8c1.9-1.1,2.3,0.6,3.1,1.5c0.8,0.9,1.6,2.2-0.2,2.8c-7.1,2.6-5.5,8.6-5.9,14.1c-0.1,2.2,2.5,6.4-2.4,6.6
		c-5.5,0.2-2.1-4.4-2.8-6.7c-0.5-1.8,0.1-4-0.1-6c-1.4-14,1-26,11.2-37.3c10.5-11.6,13.8-27.1,14.2-42.8c0.3-10.2,0-20.3,0.1-30.5
		c0.1-3.8-1.2-5.5-5.2-5.4c-16.4,0.3-13.5-1.8-13.8,13.2c0,2-0.1,4,0,6c0.2,2.1-0.5,3-2.7,3c-2.5,0-2.6-1.3-2.6-3.2
		c0.1-6.8-0.1-13.7,0.1-20.5c0.1-3.9-1-5.8-5.4-5.7c-16,0.4-13.3-2.2-13.5,13.4c-0.1,4.3-0.1,8.7,0,13c0.1,2.1-0.5,3-2.8,3
		c-2.4,0-2.7-1.2-2.7-3.1c0.1-8.8-0.1-17.7,0.1-26.5c0.1-4-1.3-5.7-5.5-5.6c-15.6,0.3-13.1-1.8-13.3,13.2c-0.1,6.2,0,12.3,0,18.5
		c0,1.9,0.1,3.6-2.7,3.6c-2.8,0-2.7-1.6-2.7-3.6c0-7-0.1-14,0-21c0.1-3.3-1-4.9-4.6-4.8c-16.4,0.3-14.1-2.4-14.2,13.8
		c-0.1,15.3,0,30.6,0,46c0,1.5,0.2,3.1-0.3,4.4c-0.9,2.2-2.7,2.5-4.2,0.6c-0.7-0.9-1.1-2.1-1.3-3.2c-1-6.6-3.8-10.7-11.3-8.9
		c-0.5,0.1-1.2,0.1-1.5-0.1c-4.2-4.7-7.6-0.5-11.3,0.8c-4.1,1.4-5.4,3.6-3.2,7.7c1.4,2.6,2.4,5.5,3.2,8.4
		c3.7,13,11.9,22.2,24.4,27.2c4.7,1.9,6,4.6,5.7,9.4c-0.4,8.6-0.1,17.3-0.1,26c0,1.9,0.5,4-2.8,3.9c-3-0.1-2.7-2-2.5-3.7
		c0.5-4.3-0.4-7.4-5.3-8.3c-1.8-0.3-2.4-1.4-1.4-3.3c0.8-1.6,1.6-2.6,3.4-1.6c3.5,1.9,3.1-0.3,3.4-2.7c1.1-8.9-0.4-15.4-10.2-19.4
		c-9.2-3.8-14.4-12.4-17.9-21.8c-1.7-4.7-3.4-9.4-5.2-14c-0.5-1.3-0.9-3.6-2.9-2c-4.8,3.8-8.1,0.4-12-1.7c-1.6-0.8-4-5.9-6,0.2
		c-0.4,1.1-4.8,2.2-4.7-1.8c0.2-5.3-3.1-7.5-6.9-9.8C28.4,127.9,20.9,123,12.8,117.9z M214.8,106.4c-0.1-1-0.1-1.5-0.2-2
		c-0.2-0.8-0.4-1.6-0.7-2.4c-11-32.1-33-51.8-66.3-58.9c-3.3-0.7-4.7-0.2-4.1,3.3c0.4,2.8-0.7,3.8-3.6,3.7c-4.5-0.2-9-0.2-13.5,0
		c-3.7,0.2-5.8-0.5-5.1-4.8c0.3-2-0.3-3.1-2.7-2.6C90.2,48.1,69.4,63.6,55.9,90c4.9-4.2,8.2-0.3,11.9,1.4c4.8,2.3,9.5,4.7,14.3,7
		c1.1,0.5,2.4,2,3.5,0.6c2.8-3.6,6.8-2.4,10.2-2.2c4.5,0.3,6.4-0.7,6.2-5.8c-0.4-6.7,2.9-9.5,9.8-9.6c2.8,0,5.7-0.1,8.5,0
		c3.4,0.2,6.3,0.3,8.3-3.4c1-1.9,3.4-2.5,5.7-2.5c4.3,0,8.7,0,13,0c2.1,0,4.5,0.5,5.3,2.2c2.1,4.3,5.6,3.8,9.2,3.7
		c3.2-0.1,6.3,0,9.5,0c2.5,0,5.2,0.7,6,2.8c1.9,5,5.6,4.6,9.6,4.4c2.7-0.1,5.3-0.1,8,0c5.3,0.2,8.3,3.1,8.7,8.3c0.5,8,0.5,8,8.3,9.3
		C212.6,106.2,213.4,106.3,214.8,106.4z M28.3,114.2c0.1,0.4,0.2,0.7,0.2,1.1c8.4,0,16.8-0.1,25.3,0c2.6,0,4.4-0.3,6.2-2.8
		c3-4.2,8.7-4.2,12.3-0.6c3.3,3.3,3.2,8.8-0.2,12.1c-3.7,3.5-8.8,3.1-12.3-0.9c-0.9-1-1.2-2.6-3.2-2.6c-9.4,0.1-18.8,0-28.2,0
		c9.7,7.1,19.6,13.4,29.5,19.7c0.6,0.4,1.1,0.7,1.7,1.1c0.9,0.5,1.8,0.7,2.8,0.1c7.5-3.9,16.4-6.4,22.1-12.1
		c3.7-3.7,0.7-12.1,1-18.4c0-0.7-0.1-1.3,0-2c0.4-2.3-0.7-3.6-2.8-4.6c-6.4-3.1-12.8-6.3-19.2-9.6c-1.5-0.8-2.9-1.2-4.6-0.1
		C48.7,101.3,38.5,107.8,28.3,114.2z M101.9,117.9c0-4-0.2-8,0.1-11.9c0.2-3.4-1.2-4.4-4.3-4c-1.3,0.2-2.7,0.2-4,0
		c-2.4-0.2-3.1,0.8-3.1,3.1c0.1,8.5,0.1,16.9,0,25.4c-0.1,2.8,1,3.5,3.5,3.2c1.5-0.1,3-0.2,4.5,0c2.6,0.3,3.5-0.7,3.4-3.3
		C101.7,126.2,101.9,122.1,101.9,117.9z M203.6,117.9c0,1.2,0.1,2.3,0,3.5c-0.5,3.7,0.8,4.5,4.4,3.8c6-1.2,12.2-1.8,18.2-2.6
		c2.7-0.3,4.4-1.5,4.5-4.3c0.2-3-1.4-4.6-4.4-5c-4.9-0.6-9.9-1.3-14.8-2C203.6,110.2,203.6,110.2,203.6,117.9z M131.6,44.8
		c6.7,0,6.5,0,6.7-5.2c0.2-4.1,0-6.9-5.5-6.4c-3.7,0.4-6.9-0.3-6.4,5.4C126.8,42.9,126.6,46.3,131.6,44.8z M48.5,33.8
		c-3,0.6-5,2.1-4.9,5.3c0.1,3.2,2.2,5,5.2,4.9c3-0.1,5-2,4.9-5.2C53.5,35.6,51.4,34.2,48.5,33.8z M216.4,33.8
		c-2.9,0.4-4.9,1.7-5.1,5c-0.1,3.2,1.8,5.1,4.8,5.3c3,0.1,5.1-1.8,5.2-4.8C221.5,36.1,219.5,34.4,216.4,33.8z M70.7,118.1
		c-0.1-2.8-1.5-4.4-4.2-4.6c-2.8-0.1-4.4,1.6-4.5,4.2c-0.1,2.6,1.6,4.4,4.2,4.5C68.9,122.4,70.4,120.8,70.7,118.1z"/>
	<path class="st0" d="M216.2,161.8c-0.6,1.4-1.1,2.9-1.8,4.2c-2.6,5.2-5.5,10.2-8.9,14.9c-1.1,1.5-2,2-3.6,0.6
		c-1.3-1.1-2.1-1.9-0.8-3.6c3.9-5.2,7.2-10.8,9.6-16.8c0.6-1.4,1.6-2.2,3.1-1.3C214.8,160.3,216.3,160.1,216.2,161.8z"/>
	<path class="st0" d="M52,160.2c1.6-0.7,1.8,0.6,2.2,1.4c1.8,3.3,3.3,6.8,5.3,10c1.3,2.1,0.3,2.8-1.2,3.8c-1.8,1.3-2.6,0.3-3.4-1.1
		c-1.8-3.3-3.4-6.7-5.3-10C47.8,161.2,50.1,160.8,52,160.2z"/>
	<path class="st0" d="M82.3,196.9c-0.7,1.1-1.3,2-2.1,2.9c-0.9,1.1-1.8,0.4-2.5-0.3c-3-2.6-6-5.2-9.1-7.8c-1.8-1.5-1.4-2.5,0.1-4
		c1.4-1.4,2.3-1.3,3.7,0c2.6,2.5,5.5,4.8,8.2,7.2C81.2,195.6,81.7,196.2,82.3,196.9z"/>
	<path class="st1" d="M28.3,114.2c10.2-6.5,20.5-13,30.7-19.5c1.7-1.1,3-0.7,4.6,0.1c6.4,3.2,12.7,6.5,19.2,9.6
		c2.1,1,3.2,2.2,2.8,4.6c-0.1,0.6,0,1.3,0,2c-0.3,6.3,2.7,14.7-1,18.4c-5.7,5.7-14.6,8.2-22.1,12.1c-1,0.5-1.9,0.4-2.8-0.1
		c-0.6-0.3-1.1-0.7-1.7-1.1c-9.9-6.3-19.8-12.6-29.5-19.7c9.4,0,18.8,0.1,28.2,0c2,0,2.3,1.6,3.2,2.6c3.5,4,8.7,4.4,12.3,0.9
		c3.4-3.2,3.5-8.7,0.2-12.1c-3.5-3.5-9.2-3.6-12.3,0.6c-1.8,2.5-3.6,2.8-6.2,2.8c-8.4-0.1-16.8,0-25.3,0
		C28.4,115,28.4,114.6,28.3,114.2z"/>
	<path class="st1" d="M101.9,117.9c0,4.1-0.1,8.3,0,12.4c0.1,2.6-0.8,3.6-3.4,3.3c-1.5-0.2-3-0.1-4.5,0c-2.5,0.2-3.5-0.5-3.5-3.2
		c0.2-8.5,0.1-16.9,0-25.4c0-2.4,0.7-3.4,3.1-3.1c1.3,0.1,2.7,0.1,4,0c3.1-0.4,4.5,0.6,4.3,4C101.6,110,101.9,114,101.9,117.9z"/>
	<path class="st1" d="M203.6,117.9c0-7.7,0-7.7,8-6.6c4.9,0.7,9.9,1.4,14.8,2c3,0.4,4.5,2,4.4,5c-0.1,2.8-1.9,4-4.5,4.3
		c-6.1,0.8-12.2,1.4-18.2,2.6c-3.6,0.7-4.9-0.1-4.4-3.8C203.7,120.2,203.6,119,203.6,117.9z"/>
	<path class="st1" d="M131.6,44.8c-5,1.5-4.8-1.9-5.2-6.2c-0.5-5.7,2.7-5,6.4-5.4c5.5-0.6,5.7,2.2,5.5,6.4
		C138.1,44.7,138.3,44.8,131.6,44.8z"/>
	<path class="st1" d="M48.5,33.8c2.9,0.4,5,1.8,5.1,5c0.1,3.2-1.9,5.1-4.9,5.2c-3,0.1-5-1.6-5.2-4.9C43.5,35.9,45.5,34.4,48.5,33.8z
		"/>
	<path class="st1" d="M216.4,33.8c3.1,0.6,5.1,2.3,5,5.4c-0.1,3.1-2.2,5-5.2,4.8c-3-0.1-4.9-2-4.8-5.3
		C211.4,35.6,213.5,34.2,216.4,33.8z"/>
	<path class="st1" d="M70.7,118.1c-0.3,2.7-1.9,4.3-4.5,4.2c-2.7-0.1-4.3-1.9-4.2-4.5c0.1-2.6,1.8-4.3,4.5-4.2
		C69.2,113.7,70.6,115.4,70.7,118.1z"/>
</g>
</svg>
