<?xml version="1.0" encoding="utf-8"?>
<!-- Generator: Adobe Illustrator 25.4.1, SVG Export Plug-In . SVG Version: 6.00 Build 0)  -->
<svg version="1.1" id="Capa_1" xmlns="http://www.w3.org/2000/svg" xmlns:xlink="http://www.w3.org/1999/xlink" x="0px" y="0px"
	 viewBox="0 0 1920 1080" style="enable-background:new 0 0 1920 1080;" xml:space="preserve">
<style type="text/css">
	.st0{fill:#FDFDFD;}
	.st1{fill:#898989;}
</style>
<g>
	<path class="st0" d="M1130,707.8c5.9,0.1,8-2.3,8-8.2c-0.3-32-0.2-64.1-0.3-96.1c-0.1-41.8-30.5-74.6-71.9-77.9
		c-27.7-2.2-61.4,18.8-72.2,44.3c-5.5,12.9-8,26.1-7.8,40c0.2,17.5-0.3,35,0.2,52.5c0.2,7.4-2.3,12.9-7.5,17.8
		c-8.8,8.2-17.4,16.5-26.2,27.3l-0.2,0.4c0,0.1-0.5,0.6-0.5,0.7c-0.1,0.1-0.3,0.5-0.9,0.9c-3.5,2.4-8.8,4-19.1,17.1
		c-1.6,2-3.2,5.5-6,4.5c-2.9-1-1.6-4.8-1.6-7.3c0-41.2,0.7-82.4-0.1-123.6c-0.6-30.5-22.7-59.9-53.5-70.7
		c-46.5-16.3-97.9,22.7-98.7,72.6c-0.5,31.7,1.5,63.6-1.1,95.2c-5.2,62.3-1.2,124.6-2.9,186.9c-0.2,8.7-2.4,10.9-11.3,11
		c-12.8,0.1-25.6,0-38.6,1.3c57.7,39.3,121.1,62.4,190.4,69.8c102.9,11,197.1-13,285.2-68.8c-4.9-3.2-8.7-2.1-12.3-2.1
		c-113.1-0.1-226.2-0.1-339.2-0.1c-13.2,0-13.2,0-13.2-13.5c0-12.4,0-24.8,0-37.2c0-6,4.9-10.8,10.9-10.8c72.2,0,144.3,0,216.5,0
		c3.7,0,7.5,0.7,12.6-1.5c-36.5-36.7-72.6-73-108.6-109.2c2.4-3.6,5.4-2.4,7.8-2.4c23.6-0.1,47.2,0,70.9-0.1c5.2,0,10.1,2,13.8,5.6
		c33.6,33.7,67.4,67.1,100.9,101c6.5,6.6,13.4,7.8,22,5.9c-1.4-5.8-6.5-8-10-11.5c-26.1-25.9-51.1-52.8-78-77.9
		c-5.9-5.5-11.3-11.5-16.8-17.4c-3.1-3.3-3.2-5.7,2.3-5.7c25.6,0,51.2,0,76.7,0.1c4.8,0,7.8,3.1,10.9,6.2
		c32.9,32.9,65.9,65.8,98.6,98.9c5.8,5.8,11.7,8.4,19.9,8.2c19.4-0.5,38.8-0.2,58.1-0.1c3.1,0,7-1.1,8.8,2.4c1.8,3.6-0.7,6.7-3,9.4
		c-25.7,30.9-54.2,58.9-85.9,83.7c-38.7,30.3-81.4,53.4-127,71c-40.3,15.5-82.4,24.6-125.4,28.9c-76.8,7.8-151.4-2.2-223.7-28.5
		c-50.5-18.3-96.1-45.5-138-79.1c-42.4-34-78-74-107.2-119.5c-24.2-37.7-43-78-56.1-121.1c-16.8-55.1-24.4-111.3-21.8-168.7
		c1.9-41.7,9-82.7,21.2-122.8c14.3-47,34.9-90.8,62.2-131.5c16.8-25,35.4-48.5,56.8-70c21.7-21.8,44.4-42.1,69.6-59.8
		c43.5-30.6,90.5-53.8,141.3-69.6c57.5-17.9,116.4-23.3,176.3-21.1c8.5,0.3,15.2,7.4,15.2,15.9c0,13.7-0.1,27.5,0,41.2
		c0,5.7-2.2,7.2-8,6.8c-28.8-2-57.5-2.2-86.2,1c-53.2,5.9-103.6,21.5-151.1,46.1c-47.5,24.6-88.8,57.4-124.5,97.4
		c-44.7,50-76,107.3-94.2,171.8C521,472.5,516.8,528,523.4,584.6c9.8,84.7,42.6,159.5,96.1,225.4c23.5,28.9,50.6,54.2,80.7,76.1
		c2.3,1.7,4.8,4.9,7.6,3.6c3.1-1.4,1.6-5.3,1.6-8.1c0.1-92.1,0.4-184.2,0-276.2c-0.2-45.7,18.4-82.6,51.6-112.1
		c19.2-17.1,43.7-25.9,69.1-28.9c29.1-3.4,57.7,0.4,83.6,15.3c13.5,7.8,26.1,17.1,36.6,28.8c3.7,4.1,5.8,3.9,9.5,0.1
		c38.4-40.7,85.6-52.4,139.2-40.7c10.4,2.3,20.5,6.4,29.8,12.1c2.2,1.4,4.4,4.3,7,3c3.1-1.6,1.9-5.3,1.9-8.1
		c0.1-53.8,0-107.7,0-161.5c0-6.5,0-12.9-0.1-19.4c0-3.6-0.9-5.8-5.3-3.6c-33,16.4-68.6,25.4-103.7,35.7
		c-26.1,7.7-37.4,25-41.1,49.9c-2.3,15-2.1,30.1-1.6,45.1c0.3,8.9-1.8,16.3-8.5,23.2c-5.1,5.4-9.5,11.4-12.9,18
		c-3.7,7-6.4,8.3-11.2,4.4c-16.4-13.5-25.7-29.9-26.3-52c-0.6-22.8-3.9-45.5-12.4-67.1c-8-20.2-21.2-35.8-41.2-44.3
		c-29.8-12.6-60.7-18.3-91.6-4.9c-28.7,12.5-45.3,36.6-56.3,65.1c-1.9,5-2.9,10.4-2.9,15.8c-0.1,39.1-1.4,78.2-3.4,117.3
		c-0.8,15.3,150.6-142.6-8.3,45.2c-1,3-0.4,8.4-5,8c-4-0.4-3.8-5.4-4.6-8.6c-5.9-23.8-9.5-48-12.8-72.3
		c-4.3-30.9-30.3-96-31.3-127.2c-0.8-22.9,24.2-11.8,30.2-34.1c1.8-6.8,4.8-13.3,10.1-18.1c32.2-29.2,69.5-46.6,113.3-48.5
		c24.6-1.1,48.8,1.8,72.9,7.2c27.7,6.2,47,22.8,60.7,46.8c0.8,1.4,1.3,3,2.2,4.3c1.8,2.5,2.2,12.6,6.1,12.3
		c3.3-0.3,4.4-9.8,5.8-12.4c7.4-13.9,20.5-21,33.7-27.6c23.3-11.7,48.1-18.7,73.4-24.1c29.6-6.4,53.9-22.3,76.7-41.2
		c6-5,11.8-10.3,17-16c17.8-19.7,16.1-43.1,10.6-66.3c-4.7-20-15.8-37-29.8-52c-2-2.1-28.7-20.4-30.1-25.2
		c19.7,5,59.1,31.4,72.6,44.5c4.8,4.7,9.1,9.9,13.4,15c25,29.3,26,61.2,10.6,95c-8.7,19-20.1,36.2-33.6,52.1
		c-8.6,10.2-14.7,22.7-27.8,29.6c3.6,2.7,6.9,1.9,9.9,1.9c11.6,0.1,23.2,0,34.7,0.1c9.5,0.1,10.5,1.1,10.5,10.8
		c0,5.4-0.1,10.8-0.1,16.2c0,128.2,0,256.3,0,384.5c0,13.5,0,13.5-13.2,13.5"/>
	<path class="st1" d="M895.1,383c-0.5,21-9.1,37-28.9,46.1c-21.5,9.9-43.3,0.2-54.6-16.5c-13.9-20.6-14.4-48.9,2.7-70
		c15.5-19.1,44.4-21.1,62.4-4.3C889.8,350.4,896,365.1,895.1,383z M876.9,373.1c-0.5-6.5-2.8-13.2-7.1-19.3
		c-10.4-15-29.3-16.6-41.5-3.2c-15,16.3-10.1,43.6,9.5,53.9c4.7,2.5,9.4,3.4,14.8,2.3C867.3,403.8,876.6,391.5,876.9,373.1z"/>
	<path class="st1" d="M1063.4,433.6c-28,2.4-47.2-24.1-47.2-45.7c0-27.2,19.8-45.6,47-47.1c24.4-1.3,47.2,22.8,47.1,47.1
		C1110.1,410.1,1089.9,436.3,1063.4,433.6z M1063.5,359c-16,0-29.6,13.7-29.2,29.3c0.3,14.7,13.7,27.8,28.3,27.7
		c16.4-0.1,29.4-12.5,29.3-28C1091.9,372.1,1079,359,1063.5,359z"/>
</g>
</svg>
