<?xml version="1.0" encoding="utf-8"?>
<!-- Generator: Adobe Illustrator 25.4.1, SVG Export Plug-In . SVG Version: 6.00 Build 0)  -->
<svg version="1.1" id="Capa_1" xmlns="http://www.w3.org/2000/svg" xmlns:xlink="http://www.w3.org/1999/xlink" x="0px" y="0px"
	 viewBox="0 0 1000 1000" style="enable-background:new 0 0 1000 1000;" xml:space="preserve">
<style type="text/css">
	.st0{fill:#EC6F09;stroke:#FF902A;stroke-width:2.500000e-02;stroke-miterlimit:1;}
	.st1{fill:#FFFFFF;stroke:#FF902A;stroke-width:2.500000e-02;stroke-miterlimit:1;}
</style>
<g transform="translate(0.000000,1000.000000) scale(0.100000,-0.100000)">
	<path class="st0" d="M3698.1,7310.9C3318.6,6748.5,2478.7,6605.6,2471,6603c-6.5-2.6-10.3-7.8-6.5-10.3
		c3.9-3.9,547.7-316.5,1207.8-695c661.4-377.2,1213-695,1228.5-704c23.3-15.5,55.5,0,332,158.9c167.9,98.2,306.1,179.6,304.9,183.4
		c0,3.9-202.8,122.7-450.8,263.5c-249.3,140.8-645.9,467.6-645.9,471.5c1.3,6.5,253.2,155,284.2,166.6
		c5.2,1.3,409.5-321.6,661.4-466.3l458.6-263.5l764.7,440.5c419.8,241.6,763.4,443.1,763.4,446.9c-1.3,7.8-598.1,348.8-611,348.8
		c-6.5,0-201.5-109.8-435.3-245.4c-233.8-134.3-439.2-251.9-456-259.6c-28.4-12.9-49.1-5.2-175.7,67.2
		c-78.8,45.2-143.4,85.3-143.4,89.1c1.3,3.9,204.1,122.7,452.1,264.8s450.8,260.9,450.8,264.8c0,5.2-987,576.2-1378,799.4
		c-110.2,62.9-240,81.5-363.4,52.1C4449.4,7913.6,3991.7,7745.8,3698.1,7310.9z M5073.9,7212.7c77.5-45.2,140.8-84,142.1-87.8
		c0-7.8-1151-673-1193.6-689.8c-23.3-9-55.5,5.2-174.4,73.6l-144.7,84l87.8,51.7c293.2,174.4,1122.5,648.5,1131.6,648.5
		C4927.9,7292.8,4996.3,7256.6,5073.9,7212.7z"/>
	<path class="st1" d="M2350.8,4993.4l3.9-1409.3L3569,2876.3c667.8-387.5,1222-710.5,1231-715.6c12.9-9,15.5,96.9,12.9,527
		L4809,3225l-290.6,169.2c-160.2,93-298.4,171.8-306.1,174.4c-12.9,5.2-16.8-32.3-16.8-162.8c0-93-3.9-169.2-7.8-169.2
		c-5.2,0-281.6,157.6-613.6,351.4l-605.8,351.4v702.7c0,386.2,5.2,700.1,10.3,697.6c6.5-1.3,281.6-160.2,613.6-352.7l602-348.8
		l3.9-179.6l3.9-179.6l297.1-171.8c164.1-95.6,301-173.1,307.4-173.1c5.2,0,9,237.7,9,528.3v529.6l-118.8,69.8
		c-471.5,276.4-2307.1,1331.8-2326.5,1337C2349.5,6404.1,2348.2,6333,2350.8,4993.4z"/>
	<path class="st0" d="M7405.5,6369.2c-28.4-16.8-572.3-330.7-1207.8-697.6s-1160-671.7-1166.5-676.9c-5.2-5.2-7.8-645.9-6.5-1424.8
		l3.9-1414.5l303.6,175.7l303.6,177l3.9,1065.7l2.6,1064.4l142.1,81.4c77.5,43.9,144.7,80.1,148.6,80.1s6.5-474.1,6.5-1052.8
		s3.9-1052.8,10.3-1052.8c5.2,0,144.7,80.1,310,178.3l302.3,177l-1.3,1055.4l-1.3,1056.7l67.2,42.6c37.5,24.5,107.2,65.9,156.3,91.7
		l86.5,49.1V4285.6V3226.3l307.4,178.3l306.1,178.3l3.9,1409.3c2.6,1123.8,0,1409.3-12.9,1409.3
		C7464.9,6400.2,7433.9,6386,7405.5,6369.2z"/>
</g>
</svg>
