<?xml version="1.0" encoding="utf-8"?>
<!-- Generator: Adobe Illustrator 25.4.1, SVG Export Plug-In . SVG Version: 6.00 Build 0)  -->
<svg version="1.1" id="Capa_1" xmlns="http://www.w3.org/2000/svg" xmlns:xlink="http://www.w3.org/1999/xlink" x="0px" y="0px"
	 viewBox="0 0 250 250" style="enable-background:new 0 0 250 250;" xml:space="preserve">
<style type="text/css">
	.st0{fill:#EC6F09;}
	.st1{fill:#FFFFFF;}
	.st2{fill:#F5F5F5;}
</style>
<g>
	<path class="st0" d="M123.3,184c-29.4,0-58.7-0.1-88.1,0.1c-8.3,0.1-14.6-3-19.3-9.6c-1.4-1.9-1.6-4.3-1.6-6.7c0-7,0.6-14-0.1-21
		c-1.1-10.5,9.1-19,18.4-18.8c8,0.2,15.9,0.2,23.9-0.1c3.3-0.1,3.8,1,3.7,3.9c0,3-0.4,4.4-3.9,4.2c-7.6-0.3-15.3-0.2-22.9-0.1
		c-6.2,0.1-10.1,4-10.1,10.1c0,6.5,0,13,0,19.5c0,6.8,5.1,11.1,11.9,10.4c1.9-0.2,2.1-0.9,2.1-2.5c-0.1-2.8,0-5.7,0-8.5
		c0-4.6,3.5-6.8,7.9-5.1c1.3,0.5,1.1,1.5,1.1,2.4c0,2.8,0,5.7,0,8.5c0,4.6,3.5,6.9,7.9,5.1c2-0.8,1.2-2.7,1-3.9
		c-0.5-3.8,1.3-4.3,4.5-4.2c2.9,0.1,5.3-0.1,4.6,4c-0.2,1.3-1,3.5,0.9,3.9c2.4,0.5,5,0.4,7.4-0.1c1.3-0.3,0.8-2.4,0.6-3.6
		c-0.8-4.6,2.1-4.2,5-4.1c2.7,0.1,5.9-0.8,5.1,4c-0.2,1.2-1,3.5,0.9,3.9c2.4,0.5,5,0.3,7.4-0.1c1-0.1,0.6-1.7,0.6-2.7
		c0-2.7,0-5.3,0-8c0-4.6,3.6-6.8,7.9-5.1c1.3,0.5,1,1.5,1.1,2.4c0,2.8,0,5.7,0,8.5c0,4.6,3.6,6.9,7.9,5c2-0.9,1.2-2.7,1-3.9
		c-0.5-3.8,1.3-4.3,4.5-4.2c2.9,0.1,5.2-0.1,4.6,4c-0.2,1.2-1,3.5,0.9,3.9c2.4,0.5,5.1,0.6,7.3-0.2c1.5-0.5,0.8-3,0.6-4.6
		c-0.4-4.1,2.4-3.1,4.5-3c1.9,0.1,4.9-1.4,4.6,2.9c-0.1,1.6-1.2,4.2,0.9,4.9c2.1,0.7,4.6,0.3,6.9,0.1c1.4-0.1,1-1.4,1-2.4
		c0-2.7,0-5.3,0-8c0-5.5,2-6.9,7.4-5.6c1.7,0.4,1.5,1.4,1.5,2.5c0,2.7,0,5.3,0,8c0,5.5,2,6.9,7.4,5.6c2.7-0.7,1.6-2.7,1.4-4
		c-0.5-3.9,1.4-4.2,4.6-4.1c3,0,5.3,0.1,4.5,4.1c-1,4.6,2.1,4.1,5,4.1c2.8,0,6,0.7,5-4c-0.8-3.9,1.3-4.2,4.5-4.1
		c3,0,5.3,0.1,4.5,4.1c-1,4.6,2.1,3.9,4.9,4.1c3.2,0.3,4.5-0.7,4.1-4.1c-0.3-2.1-0.1-4.3-0.1-6.5c0-5.4,2.1-6.9,7.5-5.6
		c1.7,0.4,1.5,1.5,1.5,2.5c0,2.5-0.2,5,0.1,7.5c0.2,2-1.3,5,1,5.8c2.5,0.9,5.6,0.6,8.1-1c2.7-1.8,3.8-4.4,3.8-7.7c-0.1-7,0-14,0-21
		c0-7.2-2.7-10-9.9-10c-22.1,0-44.1-0.1-66.2,0c-3,0-4.8,0.1-4.7-4c0-3.8,1.4-4.1,4.6-4.1c22.1,0.1,44.1,0.4,66.2-0.1
		c10.5-0.2,21,7.6,20.1,20.4c-0.4,5.5-0.3,11,0,16.5c0.6,11.2-8.9,19.4-19.1,19.3C183.4,183.8,153.3,184,123.3,184z"/>
	<path class="st1" d="M119.3,40.1c19.6,0,39.1,0,58.7,0c2.8,0,4.7-0.3,4.8,3.9c0.1,4.5-2.1,4.2-5,4.2c-39.3,0-78.6,0-117.9-0.1
		c-4,0-4.8,1.2-4.7,4.9c0.2,21-0.1,42,0.2,62.9c0.1,4.5-1.9,4.1-4.9,4.3c-3.6,0.3-4.3-1-4.3-4.4c0.1-27,0.6-54-0.1-80.9
		C45.6,19.8,58.7,8.2,72,8.2c34.3-0.2,68.7-0.2,103,0c13.3,0.1,26.1,12,25.7,26.9c-0.7,26.8-0.3,53.6-0.1,80.4
		c0,3.7-0.9,4.6-4.6,4.7c-3.7,0-4.6-1-4.6-4.7c0.2-27.1,0-54.3,0.1-81.4c0-8.9-7.5-17.9-17.2-18c-34-0.1-68-0.3-102,0.1
		c-12.2,0.1-18.9,10.5-17.2,22.2c0.4,2.8,2.6,1.5,3.9,1.6c18.6,0.1,37.2,0.1,55.7,0.1C116.3,40,117.8,40,119.3,40.1z"/>
	<path class="st0" d="M178.4,84.1c-0.6,3.5-1.7,6.7-5.1,9.3c-6.7,5.2-12.8,11.2-19.2,16.9c-13.1,11.6-26.3,23.1-39.5,34.7
		c-2.6,2.3-5.1,4.7-7.6,7.1c-6.3,6.2-15,5.3-22.6,7.6c-5.5,1.7-11.3,2.6-16.9,3.8c-6.1,1.3-7.9-0.7-6.7-6.7
		c1.9-9.9,5.7-19.2,8.2-28.9c0.6-2.5,2.4-3.9,4.1-5.4c6.7-5.9,13.6-11.7,20.4-17.6c13.2-11.5,26.4-23,39.5-34.7
		c3.3-2.9,6.1-6.4,10-8.7c5.2-3,12.2-2.7,16.7,1.1c5.1,4.4,10.2,8.7,15.2,13.2C177.3,77.9,178.1,80.8,178.4,84.1z M152.8,100.3
		c-1.1-2.8-3.8-3.7-5.6-5.4c-1.2-1.1-1.9-0.6-2.9,0.3c-15.9,14.1-31.9,28.1-47.9,42.1c-2.2,1.9-2.9,3.4-0.2,5.4
		c2.2,1.6,3.6,5,7.1,1.6c6.4-6.1,13-12,19.7-17.8c9.3-8.2,18.8-16.2,28.2-24.3C151.7,101.5,152.2,100.9,152.8,100.3z M139.5,88
		c-2.2-2.1-3.9-3.9-5.8-5.4c-1.2-1-2.4-0.3-3.5,0.7c-9.4,8.5-18.7,16.9-28.2,25.3c-6.7,6-13.5,11.8-20.4,17.6
		c-1.8,1.5-2,2.8,0.1,3.6c1.3,0.6,2.2,1.5,3,2.4c1.5,1.7,2.4,1.9,4.3,0.2c7.8-7.2,15.9-14.1,23.9-21.1c6.5-5.7,13.2-11.2,19.7-16.9
		C135,92.6,137,90.4,139.5,88z M151.3,67.4c-2.1-0.1-12.2,7.1-12.3,8.3c0,0.4,0.2,1,0.5,1.3c6.3,5.4,12.7,10.8,19,16.2
		c0.7,0.6,1.3,1,2.1,0.3c2.6-2.3,5.4-4.3,7.7-6.9c2.3-2.6,0.9-5.3-1.5-6.8c-3-1.9-5-4.7-7.7-6.8C156.4,71,154.1,68.3,151.3,67.4z
		 M76.4,136c-1.7,5.5-4.1,10.2-5.1,15.4c-0.4,2.3,0,3.1,2.4,2.5c4.7-1.1,9.3-2,14-3.1c3.2-0.7,2.8-2.1,0.8-3.9
		C84.5,143.4,80.7,139.9,76.4,136z"/>
	<path class="st1" d="M127.5,207.9c-19.4,0-38.8,0-58.2,0c-2.7,0-5.2,1-5.3-3.9c-0.1-5.2,2.8-4.1,5.6-4.1c39,0,78-0.1,116.9,0.1
		c3.8,0,6-0.4,5.2-4.9c-0.8-4.5,2.6-3,4.8-3.1c2.3-0.2,4.4-0.6,4.3,3.3c-0.3,8.5-0.6,17,0,25.5c1,15-12.2,27-25.5,27.1
		c-34.5,0.2-69,0.2-103.5,0c-13.2-0.1-26.8-11.7-25.6-26.9c0.7-8.4,0.4-17,0-25.5c-0.2-4.3,2.2-3.5,4.6-3.5c2.4,0,4.8-0.7,4.6,3.5
		c-0.4,8.3,0.5,16.7-0.3,24.9c-1.2,11.5,9.6,19.8,19.8,19.6c27.5-0.4,55.1-0.1,82.6-0.1c5.5,0,10.9,0,16.4,0
		c9.9,0,18.2-8.8,17.8-18.4c-0.2-4.4,1.9-10.3-0.9-12.9c-2.4-2.2-8.2-0.7-12.5-0.7C161.3,207.9,144.4,207.9,127.5,207.9z"/>
	<path class="st0" d="M123.6,212c7.6,0.1,13.2,5.1,13.2,12c0,7-5.8,12.1-13.7,12c-7.7-0.1-13.2-5.1-13.1-12
		C110,216.9,115.7,211.9,123.6,212z M127.9,223.8c-0.6-2.7-2.2-4-4.9-3.8c-2.5,0.2-4.1,1.6-4,4.1c0.2,2.8,2.1,4,4.8,3.8
		C126.4,227.7,127.6,226.2,127.9,223.8z"/>
	<path class="st1" d="M122.9,32.1c-2.8,0-5.7-0.2-8.5,0c-3.1,0.2-4.7-0.1-4.7-4c0-3.9,1.6-4.2,4.6-4.1c6.5,0.2,13,0.3,19.4,0
		c3.7-0.2,3,2,3,4.1c0,2,0.8,4.4-3,4.1C130.2,31.8,126.6,32.1,122.9,32.1z"/>
	<path class="st1" d="M150,32c-3.2,0.8-4.2-0.4-4.4-3.9c-0.3-4.5,2.2-3.8,5-4.1c3.6-0.3,4.1,1,4.3,4.3C155.1,32.5,152.9,32.3,150,32
		z"/>
	<path class="st2" d="M152.8,100.3c-0.5,0.6-1,1.2-1.6,1.8c-9.4,8.1-18.8,16.1-28.2,24.3c-6.7,5.8-13.3,11.7-19.7,17.8
		c-3.5,3.4-4.9,0-7.1-1.6c-2.7-2-2-3.5,0.2-5.4c16-14,32-28,47.9-42.1c1-0.9,1.7-1.4,2.9-0.3C149,96.6,151.7,97.5,152.8,100.3z"/>
	<path class="st2" d="M139.5,88c-2.5,2.4-4.5,4.6-6.7,6.5c-6.5,5.7-13.2,11.2-19.7,16.9c-8,7-16.1,13.9-23.9,21.1
		c-1.9,1.7-2.9,1.5-4.3-0.2c-0.8-1-1.7-1.9-3-2.4c-2.1-0.9-1.9-2.1-0.1-3.6c6.9-5.8,13.7-11.6,20.4-17.6
		c9.4-8.4,18.8-16.8,28.2-25.3c1.1-1,2.2-1.7,3.5-0.7C135.6,84.1,137.3,85.9,139.5,88z"/>
	<path class="st2" d="M151.3,67.4c2.8,0.9,5.1,3.6,7.8,5.6c2.7,2.1,4.7,5,7.7,6.8c2.4,1.5,3.8,4.2,1.5,6.8c-2.3,2.5-5.1,4.6-7.7,6.9
		c-0.8,0.7-1.4,0.3-2.1-0.3c-6.3-5.4-12.7-10.7-19-16.2c-0.3-0.3-0.5-0.9-0.5-1.3C139.1,74.5,149.2,67.3,151.3,67.4z"/>
	<path class="st2" d="M76.4,136c4.3,3.9,8.1,7.4,12,10.9c2,1.8,2.5,3.2-0.8,3.9c-4.7,1-9.3,2-14,3.1c-2.3,0.5-2.8-0.2-2.4-2.5
		C72.3,146.2,74.7,141.5,76.4,136z"/>
	<path class="st2" d="M127.9,223.8c-0.3,2.5-1.5,4-4.1,4.1c-2.7,0.2-4.7-1-4.8-3.8c-0.1-2.5,1.5-3.9,4-4.1
		C125.7,219.7,127.3,221.1,127.9,223.8z"/>
</g>
</svg>
