<?xml version="1.0" encoding="utf-8"?>
<!-- Generator: Adobe Illustrator 25.4.1, SVG Export Plug-In . SVG Version: 6.00 Build 0)  -->
<svg version="1.1" id="Capa_1" xmlns="http://www.w3.org/2000/svg" xmlns:xlink="http://www.w3.org/1999/xlink" x="0px" y="0px"
	 viewBox="0 0 250 250" style="enable-background:new 0 0 250 250;" xml:space="preserve">
<style type="text/css">
	.st0{fill:#FFFFFF;}
	.st1{fill:#EC6F09;}
	.st2{fill:#FCFCFC;}
</style>
<g>
	<path class="st0" d="M124.8,32.6c31.1,0,62.3,0,93.4,0c12.9,0,17.5,4.6,17.5,17.4c0,37.5,0,74.9,0,112.4c0,12.4-4.8,17.2-17.2,17.2
		c-62.3,0-124.6,0-186.9,0c-12.5,0-17.2-4.8-17.3-17.2c0-37.8,0-75.6,0-113.4c0-11.5,4.9-16.4,16.5-16.4
		C62.1,32.6,93.4,32.6,124.8,32.6z M125,37.9c-31.5,0-62.9,0-94.4,0c-8.3,0-10.8,2.4-10.8,10.6c0,38.3,0,76.6,0,114.9
		c0,8.2,2.5,10.7,10.7,10.7c62.8,0,125.6,0,188.3,0c9.1,0,11.3-2.2,11.3-11.1c0-38,0-75.9,0-113.9c0-8.9-2.3-11.2-11.2-11.2
		C187.6,37.9,156.3,37.9,125,37.9z"/>
	<path class="st1" d="M162.5,208.9c-19.5,0-39,0-58.4,0c-1.8,0-4.1,0.9-4.1-2.6c0-3.9,2.7-2.6,4.5-2.6c29.5-0.1,58.9-0.1,88.4-0.1
		c9.7,0,19.3,0,29,0.1c1.9,0,5-1,5.2,2.2c0.2,3.6-2.9,2.9-5.1,2.9C202.1,208.9,182.3,208.9,162.5,208.9z"/>
	<path class="st1" d="M90.9,206.1c0,11.3,0,11.1-11.4,11.4c-4,0.1-5-1.4-4.4-4.8c0.5-3.2-0.8-3.9-3.8-3.8c-14,0.2-27.9,0.1-41.9,0.1
		c-1.2,0-2.3,0-3.5,0c-1.7-0.1-2.9-0.8-2.9-2.7c0-2,1.5-2.4,3.1-2.4c5.2,0,10.3,0,15.5,0c9.6,0,19.3-0.2,28.9,0.1
		c3.6,0.1,5.4-0.7,4.6-4.6c-0.7-3.6,0.9-4.8,4.3-4.2c0.2,0,0.3,0,0.5,0C90.9,194.9,90.9,194.9,90.9,206.1z M80.2,206.2
		c0,1,0.1,2,0,3c-0.2,2.1,0.6,3,2.8,2.9c1.9,0,2.7-0.8,2.6-2.6c-0.1-2.1-0.1-4.3,0-6.4c0.1-2.1-0.6-2.9-2.8-2.9
		c-2.5,0-2.7,1.3-2.6,3.2C80.2,204.3,80.2,205.2,80.2,206.2z"/>
	<path class="st2" d="M80.2,206.2c0-1,0-2,0-3c-0.1-1.8,0.1-3.2,2.6-3.2c2.2,0,2.9,0.9,2.8,2.9c-0.1,2.1-0.1,4.3,0,6.4
		c0.1,1.9-0.7,2.6-2.6,2.6c-2.2,0-3-0.8-2.8-2.9C80.3,208.2,80.2,207.2,80.2,206.2z"/>
	<path class="st1" d="M125.3,65c22.5,0.1,40.7,18.6,40.7,41.2c0,22.5-18.5,40.9-41,40.8c-22.8,0-41.1-18.6-40.9-41.4
		C84.2,83.1,102.6,64.9,125.3,65z"/>
	<path class="st1" d="M208.1,53.9c-2.8,0-5.7,0-8.5,0c-1.8,0-2.8-0.5-2.8-2.5s0.4-3.1,2.7-3.1c5.7,0.1,11.3,0.1,17,0
		c2.1,0,2.5,1,2.5,2.8s-0.4,2.9-2.5,2.8C213.7,53.8,210.9,53.8,208.1,53.9z"/>
	<path class="st1" d="M184.2,54.1c-2-1-5.5,1.7-5.6-2.9c-0.1-4.5,3.3-2.8,5.3-2.7c2,0,5.4-1.9,5.5,2.6S185.9,53,184.2,54.1z"/>
	<path class="st1" d="M112.1,105.8c0-6,0-12,0-18c0-2.9,0.8-5.3,3.5-6.7c2.7-1.4,5.1-0.6,7.4,1.2c7.7,6.1,15.4,12.1,23,18.3
		c4.3,3.5,4.3,7.3,0,10.8c-7.6,6.2-15.3,12.2-23,18.3c-2.3,1.8-4.7,2.6-7.4,1.1c-2.6-1.4-3.5-3.8-3.5-6.7
		C112.1,118.1,112.1,111.9,112.1,105.8z M117.4,105.8c0,5.8,0,11.6,0,17.4c0,3,0.9,3.7,3.4,1.7c7.1-5.7,14.2-11.4,21.4-17
		c1.8-1.4,1.7-2.4,0-3.7c-7.2-5.6-14.3-11.3-21.4-17c-0.7-0.6-1.5-1.6-2.6-1c-1.1,0.5-0.7,1.7-0.8,2.7
		C117.3,94.5,117.4,100.2,117.4,105.8z"/>
	<path class="st2" d="M117.4,105.8c0-5.6,0-11.3,0-16.9c0-1-0.3-2.1,0.8-2.7c1.1-0.5,1.8,0.4,2.6,1c7.1,5.7,14.3,11.4,21.4,17
		c1.8,1.4,1.9,2.3,0,3.7c-7.2,5.6-14.3,11.3-21.4,17c-2.5,2-3.4,1.3-3.4-1.7C117.4,117.4,117.4,111.6,117.4,105.8z"/>
</g>
</svg>
